<mxfile host="app.diagrams.net" modified="2022-05-04T17:27:04.037Z" agent="5.0 (X11)" etag="nJu8aO9xvC1J6cgJFHze" version="17.5.0" type="github" pages="2">
  <diagram id="3228e29e-7158-1315-38df-8450db1d8a1d" name="Page-1">
    <mxGraphModel dx="4013" dy="1528" grid="1" gridSize="10" guides="1" tooltips="1" connect="1" arrows="1" fold="1" page="1" pageScale="1" pageWidth="1169" pageHeight="827" background="none" math="0" shadow="0">
      <root>
        <mxCell id="0" />
        <mxCell id="1" parent="0" />
        <mxCell id="1yJ2-e0S2fUwU-lmwkSQ-21915" value="" style="group" parent="1" vertex="1" connectable="0">
          <mxGeometry x="-114.1" y="80" width="594" height="558.23" as="geometry" />
        </mxCell>
        <mxCell id="1yJ2-e0S2fUwU-lmwkSQ-21927" value="" style="group" parent="1yJ2-e0S2fUwU-lmwkSQ-21915" vertex="1" connectable="0">
          <mxGeometry x="-150" width="594" height="500" as="geometry" />
        </mxCell>
        <mxCell id="1yJ2-e0S2fUwU-lmwkSQ-21912" value="" style="shape=image;imageAspect=0;aspect=fixed;verticalLabelPosition=bottom;verticalAlign=top;clipPath=inset(0.43% 0% 13.48% 0%);shadow=0;comic=0;sketch=1;disableMultiStroke=0;fillStyle=solid;sketchStyle=comic;fontSize=42;strokeColor=#FFFFFF;strokeWidth=5;fillColor=none;gradientColor=#FFFFFF;gradientDirection=north;image=https://th.bing.com/th/id/OIP.bGlyglTsNkjyppUeT8MURwHaFs?pid=ImgDet&amp;rs=1;" parent="1yJ2-e0S2fUwU-lmwkSQ-21927" vertex="1">
          <mxGeometry width="594" height="392.04" as="geometry" />
        </mxCell>
        <mxCell id="1yJ2-e0S2fUwU-lmwkSQ-21914" value="符号系统" style="text;html=1;strokeColor=none;fillColor=none;align=center;verticalAlign=middle;whiteSpace=wrap;rounded=0;shadow=0;comic=0;sketch=1;disableMultiStroke=0;fillStyle=solid;sketchStyle=comic;fontSize=72;" parent="1yJ2-e0S2fUwU-lmwkSQ-21927" vertex="1">
          <mxGeometry x="100" y="420" width="340" height="80" as="geometry" />
        </mxCell>
        <mxCell id="1yJ2-e0S2fUwU-lmwkSQ-21917" value="" style="group;rotation=15;" parent="1" vertex="1" connectable="0">
          <mxGeometry x="450" y="730" width="470" height="579" as="geometry" />
        </mxCell>
        <mxCell id="1yJ2-e0S2fUwU-lmwkSQ-21907" value="&lt;div align=&quot;center&quot;&gt;&lt;br&gt;&lt;/div&gt;" style="ellipse;shape=cloud;whiteSpace=wrap;html=1;shadow=0;comic=0;sketch=1;disableMultiStroke=0;fillStyle=solid;sketchStyle=comic;strokeWidth=5;gradientDirection=north;align=center;rotation=15;fillColor=#ffe6cc;strokeColor=#d79b00;" parent="1yJ2-e0S2fUwU-lmwkSQ-21917" vertex="1">
          <mxGeometry x="12" y="2" width="470" height="484.58" as="geometry" />
        </mxCell>
        <mxCell id="1yJ2-e0S2fUwU-lmwkSQ-21910" value="&lt;p style=&quot;line-height: 0.4&quot;&gt;&lt;/p&gt;&lt;div&gt;&lt;font style=&quot;font-size: 56px&quot;&gt;万事万物&lt;/font&gt;&lt;/div&gt;&lt;h1 style=&quot;font-size: 42px&quot;&gt;&lt;/h1&gt;&lt;p style=&quot;font-size: 42px&quot;&gt;时间、方位、身体&lt;/p&gt;&lt;p style=&quot;font-size: 42px&quot;&gt;……&lt;br&gt;&lt;/p&gt;&lt;p&gt;&lt;/p&gt;" style="text;html=1;strokeColor=none;fillColor=none;spacing=5;spacingTop=-20;whiteSpace=wrap;overflow=hidden;rounded=0;shadow=0;comic=0;sketch=1;disableMultiStroke=0;fillStyle=solid;sketchStyle=comic;fontSize=42;align=center;verticalAlign=top;rotation=15;" parent="1yJ2-e0S2fUwU-lmwkSQ-21917" vertex="1">
          <mxGeometry x="52" y="131" width="370" height="380" as="geometry" />
        </mxCell>
        <mxCell id="1yJ2-e0S2fUwU-lmwkSQ-21916" value="宇宙" style="text;html=1;strokeColor=none;fillColor=none;align=center;verticalAlign=middle;whiteSpace=wrap;rounded=0;shadow=0;comic=0;sketch=1;disableMultiStroke=0;fillStyle=solid;sketchStyle=comic;fontSize=72;rotation=105;horizontal=0;" parent="1yJ2-e0S2fUwU-lmwkSQ-21917" vertex="1">
          <mxGeometry x="-172" y="186" width="340" height="80" as="geometry" />
        </mxCell>
        <mxCell id="1yJ2-e0S2fUwU-lmwkSQ-21921" style="edgeStyle=orthogonalEdgeStyle;curved=1;orthogonalLoop=1;jettySize=auto;html=1;exitX=1;exitY=0.5;exitDx=0;exitDy=0;fontSize=42;strokeWidth=11;noEdgeStyle=1;entryX=1;entryY=0.5;entryDx=0;entryDy=0;" parent="1" source="1yJ2-e0S2fUwU-lmwkSQ-21916" target="1yJ2-e0S2fUwU-lmwkSQ-21911" edge="1">
          <mxGeometry relative="1" as="geometry">
            <mxPoint x="-110" y="1380" as="targetPoint" />
            <Array as="points">
              <mxPoint x="90" y="1430" />
            </Array>
          </mxGeometry>
        </mxCell>
        <mxCell id="1yJ2-e0S2fUwU-lmwkSQ-21923" style="edgeStyle=orthogonalEdgeStyle;curved=1;orthogonalLoop=1;jettySize=auto;html=1;entryX=0;entryY=0.5;entryDx=0;entryDy=0;fontSize=42;strokeWidth=11;noEdgeStyle=1;exitX=0;exitY=0.5;exitDx=0;exitDy=0;" parent="1" source="1yJ2-e0S2fUwU-lmwkSQ-21911" target="1yJ2-e0S2fUwU-lmwkSQ-21914" edge="1">
          <mxGeometry relative="1" as="geometry">
            <mxPoint x="-450" y="930" as="sourcePoint" />
            <Array as="points">
              <mxPoint x="-320" y="620" />
            </Array>
          </mxGeometry>
        </mxCell>
        <mxCell id="1yJ2-e0S2fUwU-lmwkSQ-21924" style="edgeStyle=orthogonalEdgeStyle;curved=1;orthogonalLoop=1;jettySize=auto;html=1;entryX=0;entryY=0.5;entryDx=0;entryDy=0;fontSize=42;strokeWidth=11;noEdgeStyle=1;exitX=1;exitY=0.5;exitDx=0;exitDy=0;" parent="1" source="1yJ2-e0S2fUwU-lmwkSQ-21914" target="1yJ2-e0S2fUwU-lmwkSQ-21916" edge="1">
          <mxGeometry relative="1" as="geometry">
            <Array as="points">
              <mxPoint x="450" y="510" />
            </Array>
          </mxGeometry>
        </mxCell>
        <mxCell id="1yJ2-e0S2fUwU-lmwkSQ-21926" value="" style="group" parent="1" vertex="1" connectable="0">
          <mxGeometry x="-899.9959698893431" y="800.0040051955876" width="805.8985102677871" height="737.0803492000073" as="geometry" />
        </mxCell>
        <mxCell id="1yJ2-e0S2fUwU-lmwkSQ-21919" value="" style="group;rotation=-30;" parent="1yJ2-e0S2fUwU-lmwkSQ-21926" vertex="1" connectable="0">
          <mxGeometry x="113.26596988934307" y="79.36599480441237" width="470" height="579" as="geometry" />
        </mxCell>
        <mxCell id="1yJ2-e0S2fUwU-lmwkSQ-21906" value="" style="shape=image;imageAspect=0;aspect=fixed;verticalLabelPosition=bottom;verticalAlign=top;shadow=0;comic=0;sketch=1;disableMultiStroke=0;fillStyle=auto;sketchStyle=comic;strokeColor=#FFFFFF;strokeWidth=5;fillColor=#000000;gradientColor=#FFFFFF;gradientDirection=north;image=https://i.pinimg.com/originals/ef/56/01/ef56013a8ec3de5b3a2d78a76dfbc639.png;rotation=-30;" parent="1yJ2-e0S2fUwU-lmwkSQ-21919" vertex="1">
          <mxGeometry x="-36" y="10" width="470" height="433.58" as="geometry" />
        </mxCell>
        <mxCell id="1yJ2-e0S2fUwU-lmwkSQ-21911" value="中国古代&lt;br&gt;命理学" style="text;html=1;strokeColor=none;fillColor=none;align=center;verticalAlign=middle;whiteSpace=wrap;rounded=0;shadow=0;comic=0;sketch=1;disableMultiStroke=0;fillStyle=solid;sketchStyle=comic;fontSize=72;rotation=60;horizontal=0;" parent="1yJ2-e0S2fUwU-lmwkSQ-21926" vertex="1">
          <mxGeometry x="443.2659698893431" y="109.36599480441237" width="368.04" height="200" as="geometry" />
        </mxCell>
      </root>
    </mxGraphModel>
  </diagram>
  <diagram id="VOQWpiWlFKk9Ewo5HBAt" name="Page-2">
    <mxGraphModel dx="5182" dy="1528" grid="1" gridSize="10" guides="1" tooltips="1" connect="1" arrows="1" fold="1" page="1" pageScale="1" pageWidth="1169" pageHeight="1654" math="0" shadow="0">
      <root>
        <mxCell id="0" />
        <mxCell id="1" parent="0" />
        <mxCell id="DeQmT3_htAKg_PisZt2I-16" value="Entry" style="rounded=1;enumerate=0;comic=0;metaEdit=1;collapsible=0;absoluteArcSize=0;" vertex="1" visible="0" parent="1">
          <mxGeometry x="1011" y="60" width="80" height="30" as="geometry">
            <mxRectangle x="1011" y="60" width="70" height="20" as="alternateBounds" />
          </mxGeometry>
        </mxCell>
        <mxCell id="DeQmT3_htAKg_PisZt2I-18" value="Entry" style="rounded=1;" vertex="1" visible="0" parent="1">
          <mxGeometry x="1070" y="204" width="80" height="30" as="geometry" />
        </mxCell>
        <mxCell id="DeQmT3_htAKg_PisZt2I-19" value="" style="curved=1;noEdgeStyle=1;" edge="1" visible="0" source="DeQmT3_htAKg_PisZt2I-16" target="DeQmT3_htAKg_PisZt2I-18" parent="1">
          <mxGeometry relative="1" as="geometry" />
        </mxCell>
        <mxCell id="DeQmT3_htAKg_PisZt2I-20" value="Entry" style="rounded=1;" vertex="1" visible="0" parent="1">
          <mxGeometry x="1011" y="348" width="80" height="30" as="geometry" />
        </mxCell>
        <mxCell id="DeQmT3_htAKg_PisZt2I-21" value="" style="curved=1;noEdgeStyle=1;" edge="1" visible="0" source="DeQmT3_htAKg_PisZt2I-18" target="DeQmT3_htAKg_PisZt2I-20" parent="1">
          <mxGeometry relative="1" as="geometry" />
        </mxCell>
        <mxCell id="DeQmT3_htAKg_PisZt2I-22" value="Entry" style="rounded=1;" vertex="1" visible="0" parent="1">
          <mxGeometry x="867" y="407" width="80" height="30" as="geometry" />
        </mxCell>
        <mxCell id="DeQmT3_htAKg_PisZt2I-23" value="" style="curved=1;noEdgeStyle=1;" edge="1" visible="0" source="DeQmT3_htAKg_PisZt2I-20" target="DeQmT3_htAKg_PisZt2I-22" parent="1">
          <mxGeometry relative="1" as="geometry" />
        </mxCell>
        <mxCell id="DeQmT3_htAKg_PisZt2I-24" value="Entry" style="rounded=1;" vertex="1" visible="0" parent="1">
          <mxGeometry x="723" y="348" width="80" height="30" as="geometry" />
        </mxCell>
        <mxCell id="DeQmT3_htAKg_PisZt2I-25" value="" style="curved=1;noEdgeStyle=1;" edge="1" visible="0" source="DeQmT3_htAKg_PisZt2I-22" target="DeQmT3_htAKg_PisZt2I-24" parent="1">
          <mxGeometry relative="1" as="geometry" />
        </mxCell>
        <mxCell id="DeQmT3_htAKg_PisZt2I-26" value="Entry" style="rounded=1;" vertex="1" visible="0" parent="1">
          <mxGeometry x="663" y="204" width="80" height="30" as="geometry" />
        </mxCell>
        <mxCell id="DeQmT3_htAKg_PisZt2I-27" value="" style="curved=1;noEdgeStyle=1;" edge="1" visible="0" source="DeQmT3_htAKg_PisZt2I-24" target="DeQmT3_htAKg_PisZt2I-26" parent="1">
          <mxGeometry relative="1" as="geometry" />
        </mxCell>
        <mxCell id="DeQmT3_htAKg_PisZt2I-29" value="Entry" style="rounded=1;" vertex="1" visible="0" parent="1">
          <mxGeometry x="723" y="60" width="80" height="30" as="geometry" />
        </mxCell>
        <mxCell id="DeQmT3_htAKg_PisZt2I-30" value="" style="curved=1;noEdgeStyle=1;" edge="1" visible="0" source="DeQmT3_htAKg_PisZt2I-26" target="DeQmT3_htAKg_PisZt2I-29" parent="1">
          <mxGeometry relative="1" as="geometry" />
        </mxCell>
        <mxCell id="DeQmT3_htAKg_PisZt2I-245" value="" style="group;aspect=fixed;" vertex="1" connectable="0" parent="1">
          <mxGeometry x="-2320" y="200" width="1129.55" height="1130" as="geometry" />
        </mxCell>
        <mxCell id="VP0o7Qqgz5rmnLhCM7bh-3" value="" style="verticalLabelPosition=bottom;verticalAlign=top;html=1;shape=mxgraph.basic.partConcEllipse;startAngle=0.0;endAngle=0.20;arcWidth=0.25;container=0;fillColor=#FFFFFF;editable=1;movable=1;resizable=1;rotatable=1;deletable=1;connectable=1;fontColor=#000000;strokeColor=#C73500;gradientColor=#000000;" vertex="1" parent="DeQmT3_htAKg_PisZt2I-245">
          <mxGeometry x="378.81846262993656" y="380.2218902318159" width="365.80405988606395" height="365.8018902206209" as="geometry" />
        </mxCell>
        <mxCell id="9eq1W4PJI9Sx4SGhKkEa-6" value="" style="verticalLabelPosition=bottom;verticalAlign=top;html=1;shape=mxgraph.basic.partConcEllipse;startAngle=0.0;endAngle=0.20;arcWidth=0.25;rotation=72;strokeColor=#C73500;container=0;editable=1;movable=1;resizable=1;rotatable=1;deletable=1;connectable=1;fontColor=#000000;gradientColor=#000000;fillColor=#FFFFFF" vertex="1" parent="DeQmT3_htAKg_PisZt2I-245">
          <mxGeometry x="378.81846262993656" y="380.2218902318159" width="365.80405988606395" height="365.8018902206209" as="geometry" />
        </mxCell>
        <mxCell id="9eq1W4PJI9Sx4SGhKkEa-8" value="" style="verticalLabelPosition=bottom;verticalAlign=top;html=1;shape=mxgraph.basic.partConcEllipse;startAngle=0.0;endAngle=0.20;arcWidth=0.25;rotation=144;strokeColor=#C73500;container=0;editable=1;movable=1;resizable=1;rotatable=1;deletable=1;connectable=1;fontColor=#000000;gradientColor=#000000;fillColor=#FFFFFF" vertex="1" parent="DeQmT3_htAKg_PisZt2I-245">
          <mxGeometry x="378.81846262993656" y="380.2218902318159" width="365.80405988606395" height="365.8018902206209" as="geometry" />
        </mxCell>
        <mxCell id="9eq1W4PJI9Sx4SGhKkEa-9" value="" style="verticalLabelPosition=bottom;verticalAlign=top;html=1;shape=mxgraph.basic.partConcEllipse;startAngle=0.0;endAngle=0.20;arcWidth=0.25;rotation=216;strokeColor=#C73500;container=0;editable=1;movable=1;resizable=1;rotatable=1;deletable=1;connectable=1;fontColor=#000000;gradientColor=#000000;fillColor=#FFFFFF" vertex="1" parent="DeQmT3_htAKg_PisZt2I-245">
          <mxGeometry x="378.81846262993656" y="380.2218902318159" width="365.80405988606395" height="365.8018902206209" as="geometry" />
        </mxCell>
        <mxCell id="9eq1W4PJI9Sx4SGhKkEa-10" value="" style="verticalLabelPosition=bottom;verticalAlign=top;html=1;shape=mxgraph.basic.partConcEllipse;startAngle=0.0;endAngle=0.20;arcWidth=0.25;rotation=288;strokeColor=#C73500;container=0;fontColor=#000000;editable=1;movable=1;resizable=1;rotatable=1;deletable=1;connectable=1;gradientColor=#000000;fillColor=#FFFFFF" vertex="1" parent="DeQmT3_htAKg_PisZt2I-245">
          <mxGeometry x="378.81846262993656" y="380.2218902318159" width="365.80405988606395" height="365.8018902206209" as="geometry" />
        </mxCell>
        <mxCell id="DeQmT3_htAKg_PisZt2I-101" value="火" style="text;html=1;strokeColor=none;fillColor=none;align=center;verticalAlign=middle;whiteSpace=wrap;rounded=0;comic=0;fontSize=16;rotation=0;editable=1;movable=1;resizable=1;rotatable=1;deletable=1;connectable=1;" vertex="1" parent="DeQmT3_htAKg_PisZt2I-245">
          <mxGeometry x="446.04329520235757" y="414.1606241301192" width="44.3146247048848" height="42.09531520172168" as="geometry" />
        </mxCell>
        <mxCell id="DeQmT3_htAKg_PisZt2I-102" value="木" style="text;html=1;strokeColor=none;fillColor=none;align=center;verticalAlign=middle;whiteSpace=wrap;rounded=0;comic=0;fontSize=16;rotation=0;editable=1;movable=1;resizable=1;rotatable=1;deletable=1;connectable=1;" vertex="1" parent="DeQmT3_htAKg_PisZt2I-245">
          <mxGeometry x="390.63337137256394" y="596.1224505160536" width="44.3146247048848" height="42.09531520172168" as="geometry" />
        </mxCell>
        <mxCell id="DeQmT3_htAKg_PisZt2I-103" value="土" style="text;html=1;strokeColor=none;fillColor=none;align=center;verticalAlign=middle;whiteSpace=wrap;rounded=0;comic=0;fontSize=16;rotation=0;editable=1;movable=1;resizable=1;rotatable=1;deletable=1;connectable=1;" vertex="1" parent="DeQmT3_htAKg_PisZt2I-245">
          <mxGeometry x="633.5833865008074" y="412.9624553617952" width="44.3146247048848" height="42.09531520172168" as="geometry" />
        </mxCell>
        <mxCell id="DeQmT3_htAKg_PisZt2I-104" value="金" style="text;html=1;strokeColor=none;fillColor=none;align=center;verticalAlign=middle;whiteSpace=wrap;rounded=0;comic=0;fontSize=16;rotation=0;editable=1;movable=1;resizable=1;rotatable=1;deletable=1;connectable=1;" vertex="1" parent="DeQmT3_htAKg_PisZt2I-245">
          <mxGeometry x="691.4269306488354" y="589.4653105263243" width="44.3146247048848" height="42.09531520172168" as="geometry" />
        </mxCell>
        <mxCell id="DeQmT3_htAKg_PisZt2I-105" value="&lt;font style=&quot;font-size: 16px&quot;&gt;水&lt;/font&gt;" style="text;html=1;strokeColor=none;fillColor=none;align=center;verticalAlign=middle;whiteSpace=wrap;rounded=0;comic=0;fontSize=16;rotation=0;editable=1;movable=1;resizable=1;rotatable=1;deletable=1;connectable=1;" vertex="1" parent="DeQmT3_htAKg_PisZt2I-245">
          <mxGeometry x="537.0247480266078" y="701.6455937953589" width="44.3146247048848" height="42.09531520172168" as="geometry" />
        </mxCell>
        <mxCell id="DeQmT3_htAKg_PisZt2I-185" value="" style="verticalLabelPosition=bottom;verticalAlign=top;html=1;shape=mxgraph.basic.partConcEllipse;startAngle=0.0;endAngle=0.2;arcWidth=0.14;comic=0;fontSize=9;fontColor=#FFFFFF;strokeColor=#000000;fillColor=#FF0000;aspect=fixed;rotation=288;movable=1;resizable=1;rotatable=1;deletable=1;editable=1;connectable=1;" vertex="1" parent="DeQmT3_htAKg_PisZt2I-245">
          <mxGeometry x="160.80524310496455" y="160.44156041582718" width="808.6684553587949" height="808.6684553587949" as="geometry" />
        </mxCell>
        <mxCell id="DeQmT3_htAKg_PisZt2I-181" value="" style="verticalLabelPosition=bottom;verticalAlign=top;html=1;shape=mxgraph.basic.partConcEllipse;startAngle=0.0;endAngle=0.2;arcWidth=0.14;comic=0;fontSize=9;fontColor=#FFFFFF;strokeColor=#000000;fillColor=#FFFF00;aspect=fixed;movable=1;resizable=1;rotatable=1;deletable=1;editable=1;connectable=1;" vertex="1" parent="DeQmT3_htAKg_PisZt2I-245">
          <mxGeometry x="159.4155825849816" y="160.74910980466817" width="808.6684553587949" height="808.6684553587949" as="geometry" />
        </mxCell>
        <mxCell id="DeQmT3_htAKg_PisZt2I-182" value="" style="verticalLabelPosition=bottom;verticalAlign=top;html=1;shape=mxgraph.basic.partConcEllipse;startAngle=0.0;endAngle=0.2;arcWidth=0.14;comic=0;fontSize=9;fontColor=#FFFFFF;strokeColor=#000000;fillColor=#FFFFFF;aspect=fixed;rotation=72;movable=1;resizable=1;rotatable=1;deletable=1;editable=1;connectable=1;" vertex="1" parent="DeQmT3_htAKg_PisZt2I-245">
          <mxGeometry x="159.4155825849816" y="160.4415604158271" width="808.6684553587949" height="808.6684553587949" as="geometry" />
        </mxCell>
        <mxCell id="DeQmT3_htAKg_PisZt2I-183" value="" style="verticalLabelPosition=bottom;verticalAlign=top;html=1;shape=mxgraph.basic.partConcEllipse;startAngle=0.0;endAngle=0.2;arcWidth=0.14;comic=0;fontSize=9;fontColor=#FFFFFF;strokeColor=#000000;fillColor=#000000;aspect=fixed;rotation=144;movable=1;resizable=1;rotatable=1;deletable=1;editable=1;connectable=1;" vertex="1" parent="DeQmT3_htAKg_PisZt2I-245">
          <mxGeometry x="160.44074198496884" y="160.44156041582718" width="808.6684553587949" height="808.6684553587949" as="geometry" />
        </mxCell>
        <mxCell id="DeQmT3_htAKg_PisZt2I-184" value="" style="verticalLabelPosition=bottom;verticalAlign=top;html=1;shape=mxgraph.basic.partConcEllipse;startAngle=0.0;endAngle=0.2;arcWidth=0.14;comic=0;fontSize=9;fontColor=#FFFFFF;strokeColor=#000000;fillColor=#00FF00;aspect=fixed;rotation=216;movable=1;resizable=1;rotatable=1;deletable=1;editable=1;connectable=1;" vertex="1" parent="DeQmT3_htAKg_PisZt2I-245">
          <mxGeometry x="160.44074198496884" y="160.88579842193087" width="808.6684553587949" height="808.6684553587949" as="geometry" />
        </mxCell>
        <mxCell id="DeQmT3_htAKg_PisZt2I-195" value="" style="group" vertex="1" connectable="0" parent="DeQmT3_htAKg_PisZt2I-245">
          <mxGeometry x="372.30438978473853" y="374.8513226137566" width="378.0469750170409" height="378.0482393219882" as="geometry" />
        </mxCell>
        <mxCell id="DeQmT3_htAKg_PisZt2I-61" value="" style="verticalLabelPosition=bottom;verticalAlign=top;html=1;shape=mxgraph.basic.partConcEllipse;startAngle=0.0;endAngle=0.10;arcWidth=0.25;rotation=72;fillColor=#FFFFFF;strokeColor=#E6E6E6;container=0;editable=1;movable=1;resizable=1;rotatable=1;deletable=1;connectable=1;" vertex="1" parent="DeQmT3_htAKg_PisZt2I-195">
          <mxGeometry x="54.02785440789577" y="54.0292872495695" width="270.3769138288298" height="270.3753101630676" as="geometry" />
        </mxCell>
        <mxCell id="DeQmT3_htAKg_PisZt2I-62" value="" style="verticalLabelPosition=bottom;verticalAlign=top;html=1;shape=mxgraph.basic.partConcEllipse;startAngle=0.0;endAngle=0.10;arcWidth=0.25;rotation=144;fillColor=#FFFFFF;strokeColor=#E6E6E6;container=0;editable=1;movable=1;resizable=1;rotatable=1;deletable=1;connectable=1;" vertex="1" parent="DeQmT3_htAKg_PisZt2I-195">
          <mxGeometry x="54.02785440789577" y="54.0292872495695" width="270.3769138288298" height="270.3753101630676" as="geometry" />
        </mxCell>
        <mxCell id="DeQmT3_htAKg_PisZt2I-63" value="" style="verticalLabelPosition=bottom;verticalAlign=top;html=1;shape=mxgraph.basic.partConcEllipse;startAngle=0.0;endAngle=0.10;arcWidth=0.25;rotation=216;fillColor=#FFFFFF;strokeColor=#E6E6E6;container=0;editable=1;movable=1;resizable=1;rotatable=1;deletable=1;connectable=1;" vertex="1" parent="DeQmT3_htAKg_PisZt2I-195">
          <mxGeometry x="54.02785440789577" y="54.0292872495695" width="270.3769138288298" height="270.3753101630676" as="geometry" />
        </mxCell>
        <mxCell id="DeQmT3_htAKg_PisZt2I-64" value="" style="verticalLabelPosition=bottom;verticalAlign=top;html=1;shape=mxgraph.basic.partConcEllipse;startAngle=0.0;endAngle=0.10;arcWidth=0.25;rotation=288;fillColor=#FFFFFF;strokeColor=#E6E6E6;container=0;fontColor=#ffffff;editable=1;movable=1;resizable=1;rotatable=1;deletable=1;connectable=1;" vertex="1" parent="DeQmT3_htAKg_PisZt2I-195">
          <mxGeometry x="54.02785440789577" y="54.0292872495695" width="270.3769138288298" height="270.3753101630676" as="geometry" />
        </mxCell>
        <mxCell id="DeQmT3_htAKg_PisZt2I-66" value="" style="verticalLabelPosition=bottom;verticalAlign=top;html=1;shape=mxgraph.basic.partConcEllipse;startAngle=0.0;endAngle=0.10;arcWidth=0.25;container=0;fillColor=#E6E6E6;strokeColor=#000000;rotation=36;editable=1;movable=1;resizable=1;rotatable=1;deletable=1;connectable=1;" vertex="1" parent="DeQmT3_htAKg_PisZt2I-195">
          <mxGeometry x="53.64220678031529" y="53.6436419093512" width="270.3769138288298" height="270.3753101630676" as="geometry" />
        </mxCell>
        <mxCell id="DeQmT3_htAKg_PisZt2I-67" value="" style="verticalLabelPosition=bottom;verticalAlign=top;html=1;shape=mxgraph.basic.partConcEllipse;startAngle=0.0;endAngle=0.10;arcWidth=0.25;rotation=108;fillColor=#E6E6E6;strokeColor=#000000;container=0;editable=1;movable=1;resizable=1;rotatable=0;deletable=1;connectable=1;" vertex="1" parent="DeQmT3_htAKg_PisZt2I-195">
          <mxGeometry x="53.64220678031529" y="53.6436419093512" width="270.3769138288298" height="270.3753101630676" as="geometry" />
        </mxCell>
        <mxCell id="DeQmT3_htAKg_PisZt2I-69" value="" style="verticalLabelPosition=bottom;verticalAlign=top;html=1;shape=mxgraph.basic.partConcEllipse;startAngle=0.0;endAngle=0.10;arcWidth=0.25;rotation=252;fillColor=#E6E6E6;strokeColor=#000000;container=0;editable=1;movable=1;resizable=1;rotatable=1;deletable=1;connectable=1;" vertex="1" parent="DeQmT3_htAKg_PisZt2I-195">
          <mxGeometry x="53.64220678031529" y="53.6436419093512" width="270.3769138288298" height="270.3753101630676" as="geometry" />
        </mxCell>
        <mxCell id="DeQmT3_htAKg_PisZt2I-70" value="" style="verticalLabelPosition=bottom;verticalAlign=top;html=1;shape=mxgraph.basic.partConcEllipse;startAngle=0.0;endAngle=0.10;arcWidth=0.25;rotation=324;fillColor=#E6E6E6;strokeColor=#000000;container=0;fontColor=#ffffff;editable=1;movable=1;resizable=1;rotatable=1;deletable=1;connectable=1;" vertex="1" parent="DeQmT3_htAKg_PisZt2I-195">
          <mxGeometry x="53.64220678031529" y="53.6436419093512" width="270.3769138288298" height="270.3753101630676" as="geometry" />
        </mxCell>
        <mxCell id="DeQmT3_htAKg_PisZt2I-194" value="" style="group" vertex="1" connectable="0" parent="DeQmT3_htAKg_PisZt2I-195">
          <mxGeometry x="47.94764628153862" y="53.64364190935119" width="282.89309197791397" height="270.7609555032859" as="geometry" />
        </mxCell>
        <mxCell id="DeQmT3_htAKg_PisZt2I-60" value="" style="verticalLabelPosition=bottom;verticalAlign=top;html=1;shape=mxgraph.basic.partConcEllipse;startAngle=0.0;endAngle=0.10;arcWidth=0.25;container=0;fillColor=#FFFFFF;strokeColor=#E6E6E6;editable=1;movable=1;resizable=1;rotatable=1;deletable=1;connectable=1;" vertex="1" parent="DeQmT3_htAKg_PisZt2I-194">
          <mxGeometry x="6.080208126357147" y="0.38564534021831515" width="270.3769138288298" height="270.3753101630676" as="geometry" />
        </mxCell>
        <mxCell id="DeQmT3_htAKg_PisZt2I-68" value="" style="verticalLabelPosition=bottom;verticalAlign=top;html=1;shape=mxgraph.basic.partConcEllipse;startAngle=0.0;endAngle=0.10;arcWidth=0.25;rotation=180;fillColor=#E6E6E6;strokeColor=#000000;container=0;editable=1;movable=1;resizable=1;rotatable=1;deletable=1;connectable=1;" vertex="1" parent="DeQmT3_htAKg_PisZt2I-194">
          <mxGeometry x="5.694560498776671" y="1.6187184009515313e-14" width="270.3769138288298" height="270.3753101630676" as="geometry" />
        </mxCell>
        <mxCell id="DeQmT3_htAKg_PisZt2I-96" value="阳" style="text;html=1;strokeColor=none;fillColor=none;align=center;verticalAlign=middle;whiteSpace=wrap;rounded=0;comic=0;fontSize=16;rotation=0;editable=1;movable=1;resizable=1;rotatable=1;deletable=1;connectable=1;" vertex="1" parent="DeQmT3_htAKg_PisZt2I-194">
          <mxGeometry x="23.447808599783695" y="56.44400716148027" width="44.3146247048848" height="19.904848569290646" as="geometry" />
        </mxCell>
        <mxCell id="DeQmT3_htAKg_PisZt2I-100" value="阳" style="text;html=1;strokeColor=none;fillColor=none;align=center;verticalAlign=middle;whiteSpace=wrap;rounded=0;comic=0;fontSize=16;rotation=0;editable=1;movable=1;resizable=1;rotatable=1;deletable=1;connectable=1;" vertex="1" parent="DeQmT3_htAKg_PisZt2I-194">
          <mxGeometry x="20.022551141124204" y="189.5787475451675" width="44.3146247048848" height="22.19046663243104" as="geometry" />
        </mxCell>
        <mxCell id="DeQmT3_htAKg_PisZt2I-91" value="阴" style="text;html=1;strokeColor=none;fillColor=none;align=center;verticalAlign=middle;whiteSpace=wrap;rounded=0;comic=0;fontSize=16;rotation=0;editable=1;movable=1;resizable=1;rotatable=1;deletable=1;connectable=1;" vertex="1" parent="DeQmT3_htAKg_PisZt2I-194">
          <mxGeometry x="83.36242387428986" y="12.0630738966179" width="44.3146247048848" height="19.904848569290646" as="geometry" />
        </mxCell>
        <mxCell id="DeQmT3_htAKg_PisZt2I-94" value="阴" style="text;html=1;strokeColor=none;fillColor=none;align=center;verticalAlign=middle;whiteSpace=wrap;rounded=0;comic=0;fontSize=16;rotation=0;editable=1;movable=1;resizable=1;rotatable=1;deletable=1;connectable=1;" vertex="1" parent="DeQmT3_htAKg_PisZt2I-194">
          <mxGeometry x="83.1852073493191" y="238.40583354741477" width="44.3146247048848" height="19.904848569290646" as="geometry" />
        </mxCell>
        <mxCell id="DeQmT3_htAKg_PisZt2I-95" value="阴" style="text;html=1;strokeColor=none;fillColor=none;align=center;verticalAlign=middle;whiteSpace=wrap;rounded=0;comic=0;fontSize=16;rotation=0;editable=1;movable=1;resizable=1;rotatable=1;deletable=1;connectable=1;" vertex="1" parent="DeQmT3_htAKg_PisZt2I-194">
          <mxGeometry y="124.4355969232487" width="44.3146247048848" height="19.904848569290646" as="geometry" />
        </mxCell>
        <mxCell id="DeQmT3_htAKg_PisZt2I-97" value="阳" style="text;html=1;strokeColor=none;fillColor=none;align=center;verticalAlign=middle;whiteSpace=wrap;rounded=0;comic=0;fontSize=16;rotation=0;editable=1;movable=1;resizable=1;rotatable=1;deletable=1;connectable=1;" vertex="1" parent="DeQmT3_htAKg_PisZt2I-194">
          <mxGeometry x="156.5913980986864" y="12.0630738966179" width="44.3146247048848" height="19.904848569290646" as="geometry" />
        </mxCell>
        <mxCell id="DeQmT3_htAKg_PisZt2I-98" value="阳" style="text;html=1;strokeColor=none;fillColor=none;align=center;verticalAlign=middle;whiteSpace=wrap;rounded=0;comic=0;fontSize=16;rotation=0;editable=1;movable=1;resizable=1;rotatable=1;deletable=1;connectable=1;" vertex="1" parent="DeQmT3_htAKg_PisZt2I-194">
          <mxGeometry x="238.57846727302913" y="124.4355969232487" width="44.3146247048848" height="19.904848569290646" as="geometry" />
        </mxCell>
        <mxCell id="DeQmT3_htAKg_PisZt2I-99" value="阳" style="text;html=1;strokeColor=none;fillColor=none;align=center;verticalAlign=middle;whiteSpace=wrap;rounded=0;comic=0;fontSize=16;rotation=0;editable=1;movable=1;resizable=1;rotatable=1;deletable=1;connectable=1;" vertex="1" parent="DeQmT3_htAKg_PisZt2I-194">
          <mxGeometry x="156.5913980986864" y="238.40583354741477" width="44.3146247048848" height="19.904848569290646" as="geometry" />
        </mxCell>
        <mxCell id="DeQmT3_htAKg_PisZt2I-92" value="阴" style="text;html=1;strokeColor=none;fillColor=none;align=center;verticalAlign=middle;whiteSpace=wrap;rounded=0;comic=0;fontSize=16;rotation=0;editable=1;movable=1;resizable=1;rotatable=1;deletable=1;connectable=1;" vertex="1" parent="DeQmT3_htAKg_PisZt2I-194">
          <mxGeometry x="217.526935023198" y="58.722150782524984" width="44.3146247048848" height="19.904848569290646" as="geometry" />
        </mxCell>
        <mxCell id="DeQmT3_htAKg_PisZt2I-193" value="阴" style="text;html=1;strokeColor=none;fillColor=none;align=center;verticalAlign=middle;whiteSpace=wrap;rounded=0;comic=0;fontSize=16;rotation=0;editable=1;movable=1;resizable=1;rotatable=1;deletable=1;connectable=1;" vertex="1" parent="DeQmT3_htAKg_PisZt2I-194">
          <mxGeometry x="214.10441935268312" y="195.81813837008434" width="44.3146247048848" height="19.904848569290646" as="geometry" />
        </mxCell>
        <mxCell id="DeQmT3_htAKg_PisZt2I-196" value="" style="group" vertex="1" connectable="0" parent="DeQmT3_htAKg_PisZt2I-245">
          <mxGeometry x="226.29366949245454" y="228.0747077946907" width="672.6161009282838" height="672.6183567334692" as="geometry" />
        </mxCell>
        <mxCell id="DeQmT3_htAKg_PisZt2I-128" value="" style="verticalLabelPosition=bottom;verticalAlign=top;html=1;shape=mxgraph.basic.partConcEllipse;startAngle=0.0;endAngle=0.10;arcWidth=0.2;rotation=288;fillColor=#FFFFFF;strokeColor=#000000;container=0;movable=1;resizable=1;rotatable=1;deletable=1;editable=1;connectable=1;" vertex="1" parent="DeQmT3_htAKg_PisZt2I-196">
          <mxGeometry x="96.53932971643788" y="94.70798518443367" width="481.5421976553835" height="481.53934152123907" as="geometry" />
        </mxCell>
        <mxCell id="DeQmT3_htAKg_PisZt2I-122" value="" style="verticalLabelPosition=bottom;verticalAlign=top;html=1;shape=mxgraph.basic.partConcEllipse;startAngle=0.0;endAngle=0.10;arcWidth=0.2;rotation=252;fillColor=#E6E6E6;strokeColor=#E6E6E6;container=0;movable=1;resizable=1;rotatable=1;deletable=1;editable=1;connectable=1;" vertex="1" parent="DeQmT3_htAKg_PisZt2I-196">
          <mxGeometry x="95.53695163645018" y="95.53950760611501" width="481.5421976553835" height="481.53934152123907" as="geometry" />
        </mxCell>
        <mxCell id="DeQmT3_htAKg_PisZt2I-127" value="" style="verticalLabelPosition=bottom;verticalAlign=top;html=1;shape=mxgraph.basic.partConcEllipse;startAngle=0.0;endAngle=0.10;arcWidth=0.2;rotation=216;fillColor=#FFFFFF;strokeColor=#000000;container=0;movable=1;resizable=1;rotatable=1;deletable=1;editable=1;connectable=1;" vertex="1" parent="DeQmT3_htAKg_PisZt2I-196">
          <mxGeometry x="95.53695163645018" y="95.53950760611501" width="481.5421976553835" height="481.53934152123907" as="geometry" />
        </mxCell>
        <mxCell id="DeQmT3_htAKg_PisZt2I-121" value="" style="verticalLabelPosition=bottom;verticalAlign=top;html=1;shape=mxgraph.basic.partConcEllipse;startAngle=0.0;endAngle=0.10;arcWidth=0.2;rotation=180;fillColor=#E6E6E6;strokeColor=#E6E6E6;container=0;movable=1;resizable=1;rotatable=1;deletable=1;editable=1;connectable=1;" vertex="1" parent="DeQmT3_htAKg_PisZt2I-196">
          <mxGeometry x="95.53695163645018" y="95.53950760611501" width="481.5421976553835" height="481.53934152123907" as="geometry" />
        </mxCell>
        <mxCell id="DeQmT3_htAKg_PisZt2I-126" value="" style="verticalLabelPosition=bottom;verticalAlign=top;html=1;shape=mxgraph.basic.partConcEllipse;startAngle=0.0;endAngle=0.10;arcWidth=0.2;rotation=144;fillColor=#FFFFFF;strokeColor=#000000;container=0;movable=1;resizable=1;rotatable=1;deletable=1;editable=1;connectable=1;" vertex="1" parent="DeQmT3_htAKg_PisZt2I-196">
          <mxGeometry x="95.53695163645018" y="95.53950760611501" width="481.5421976553835" height="481.53934152123907" as="geometry" />
        </mxCell>
        <mxCell id="DeQmT3_htAKg_PisZt2I-120" value="" style="verticalLabelPosition=bottom;verticalAlign=top;html=1;shape=mxgraph.basic.partConcEllipse;startAngle=0.0;endAngle=0.10;arcWidth=0.2;rotation=108;fillColor=#E6E6E6;strokeColor=#E6E6E6;container=0;movable=1;resizable=1;rotatable=1;deletable=1;editable=1;connectable=1;" vertex="1" parent="DeQmT3_htAKg_PisZt2I-196">
          <mxGeometry x="95.53695163645018" y="95.53950760611501" width="481.5421976553835" height="481.53934152123907" as="geometry" />
        </mxCell>
        <mxCell id="DeQmT3_htAKg_PisZt2I-125" value="" style="verticalLabelPosition=bottom;verticalAlign=top;html=1;shape=mxgraph.basic.partConcEllipse;startAngle=0.0;endAngle=0.10;arcWidth=0.2;container=0;fillColor=#FFFFFF;strokeColor=#000000;rotation=72;movable=1;resizable=1;rotatable=1;deletable=1;editable=1;connectable=1;" vertex="1" parent="DeQmT3_htAKg_PisZt2I-196">
          <mxGeometry x="95.53695163645018" y="95.53950760611501" width="481.5421976553835" height="481.53934152123907" as="geometry" />
        </mxCell>
        <mxCell id="DeQmT3_htAKg_PisZt2I-119" value="" style="verticalLabelPosition=bottom;verticalAlign=top;html=1;shape=mxgraph.basic.partConcEllipse;startAngle=0.0;endAngle=0.10;arcWidth=0.2;container=0;fillColor=#E6E6E6;strokeColor=#E6E6E6;rotation=36;movable=1;resizable=1;rotatable=1;deletable=1;editable=1;connectable=1;" vertex="1" parent="DeQmT3_htAKg_PisZt2I-196">
          <mxGeometry x="95.53695163645018" y="95.53950760611501" width="481.5421976553835" height="481.53934152123907" as="geometry" />
        </mxCell>
        <mxCell id="DeQmT3_htAKg_PisZt2I-129" value="" style="verticalLabelPosition=bottom;verticalAlign=top;html=1;shape=mxgraph.basic.partConcEllipse;startAngle=0.0;endAngle=0.10;arcWidth=0.2;rotation=360;fillColor=#FFFFFF;strokeColor=#000000;container=0;fontColor=#ffffff;movable=1;resizable=1;rotatable=1;deletable=1;editable=1;connectable=1;" vertex="1" parent="DeQmT3_htAKg_PisZt2I-196">
          <mxGeometry x="95.53695163645018" y="95.53950760611501" width="481.5421976553835" height="481.53934152123907" as="geometry" />
        </mxCell>
        <mxCell id="DeQmT3_htAKg_PisZt2I-123" value="" style="verticalLabelPosition=bottom;verticalAlign=top;html=1;shape=mxgraph.basic.partConcEllipse;startAngle=0.0;endAngle=0.10;arcWidth=0.2;rotation=324;fillColor=#E6E6E6;strokeColor=#E6E6E6;container=0;fontColor=#ffffff;movable=1;resizable=1;rotatable=1;deletable=1;editable=1;connectable=1;" vertex="1" parent="DeQmT3_htAKg_PisZt2I-196">
          <mxGeometry x="95.53695163645018" y="95.53950760611501" width="481.5421976553835" height="481.53934152123907" as="geometry" />
        </mxCell>
        <mxCell id="DeQmT3_htAKg_PisZt2I-130" value="丙" style="text;html=1;strokeColor=none;fillColor=none;align=center;verticalAlign=middle;whiteSpace=wrap;rounded=0;comic=0;fontSize=16;rotation=0;movable=1;resizable=1;rotatable=1;deletable=1;editable=1;connectable=1;" vertex="1" parent="DeQmT3_htAKg_PisZt2I-196">
          <mxGeometry x="142.73879406606773" y="182.2332240569672" width="44.3146247048848" height="42.09531520172168" as="geometry" />
        </mxCell>
        <mxCell id="DeQmT3_htAKg_PisZt2I-131" value="丁" style="text;html=1;strokeColor=none;fillColor=none;align=center;verticalAlign=middle;whiteSpace=wrap;rounded=0;comic=0;fontSize=16;rotation=0;movable=1;resizable=1;rotatable=1;deletable=1;editable=1;connectable=1;" vertex="1" parent="DeQmT3_htAKg_PisZt2I-196">
          <mxGeometry x="245.50534224019097" y="106.49658281952026" width="44.3146247048848" height="42.09531520172168" as="geometry" />
        </mxCell>
        <mxCell id="DeQmT3_htAKg_PisZt2I-132" value="戊" style="text;html=1;strokeColor=none;fillColor=none;align=center;verticalAlign=middle;whiteSpace=wrap;rounded=0;comic=0;fontSize=16;rotation=0;movable=1;resizable=1;rotatable=1;deletable=1;editable=1;connectable=1;" vertex="1" parent="DeQmT3_htAKg_PisZt2I-196">
          <mxGeometry x="376.4847063391204" y="106.500869554071" width="44.3146247048848" height="42.09531520172168" as="geometry" />
        </mxCell>
        <mxCell id="DeQmT3_htAKg_PisZt2I-133" value="己" style="text;html=1;strokeColor=none;fillColor=none;align=center;verticalAlign=middle;whiteSpace=wrap;rounded=0;comic=0;fontSize=16;rotation=0;movable=1;resizable=1;rotatable=1;deletable=1;editable=1;connectable=1;" vertex="1" parent="DeQmT3_htAKg_PisZt2I-196">
          <mxGeometry x="485.77678010321745" y="182.2332240569672" width="44.3146247048848" height="42.09531520172168" as="geometry" />
        </mxCell>
        <mxCell id="DeQmT3_htAKg_PisZt2I-134" value="庚" style="text;html=1;strokeColor=none;fillColor=none;align=center;verticalAlign=middle;whiteSpace=wrap;rounded=0;comic=0;fontSize=16;rotation=0;movable=1;resizable=1;rotatable=1;deletable=1;editable=1;connectable=1;" vertex="1" parent="DeQmT3_htAKg_PisZt2I-196">
          <mxGeometry x="536.332061032517" y="308.27560728384" width="44.3146247048848" height="42.09531520172168" as="geometry" />
        </mxCell>
        <mxCell id="DeQmT3_htAKg_PisZt2I-135" value="辛" style="text;html=1;strokeColor=none;fillColor=none;align=center;verticalAlign=middle;whiteSpace=wrap;rounded=0;comic=0;fontSize=16;rotation=0;movable=1;resizable=1;rotatable=1;deletable=1;editable=1;connectable=1;" vertex="1" parent="DeQmT3_htAKg_PisZt2I-196">
          <mxGeometry x="492.0188617831407" y="439.2112591907167" width="44.3146247048848" height="42.09531520172168" as="geometry" />
        </mxCell>
        <mxCell id="DeQmT3_htAKg_PisZt2I-136" value="壬" style="text;html=1;strokeColor=none;fillColor=none;align=center;verticalAlign=middle;whiteSpace=wrap;rounded=0;comic=0;fontSize=16;rotation=0;movable=1;resizable=1;rotatable=1;deletable=1;editable=1;connectable=1;" vertex="1" parent="DeQmT3_htAKg_PisZt2I-196">
          <mxGeometry x="376.4847063391204" y="524.0269766397544" width="44.3146247048848" height="42.09531520172168" as="geometry" />
        </mxCell>
        <mxCell id="DeQmT3_htAKg_PisZt2I-137" value="癸" style="text;html=1;strokeColor=none;fillColor=none;align=center;verticalAlign=middle;whiteSpace=wrap;rounded=0;comic=0;fontSize=16;rotation=0;movable=1;resizable=1;rotatable=1;deletable=1;editable=1;connectable=1;" vertex="1" parent="DeQmT3_htAKg_PisZt2I-196">
          <mxGeometry x="245.50534224019097" y="518.0966992414841" width="44.3146247048848" height="42.09531520172168" as="geometry" />
        </mxCell>
        <mxCell id="DeQmT3_htAKg_PisZt2I-138" value="甲" style="text;html=1;strokeColor=none;fillColor=none;align=center;verticalAlign=middle;whiteSpace=wrap;rounded=0;comic=0;fontSize=16;rotation=0;movable=1;resizable=1;rotatable=1;deletable=1;editable=1;connectable=1;" vertex="1" parent="DeQmT3_htAKg_PisZt2I-196">
          <mxGeometry x="142.73667519107676" y="443.7746504163603" width="44.3146247048848" height="42.09531520172168" as="geometry" />
        </mxCell>
        <mxCell id="DeQmT3_htAKg_PisZt2I-139" value="乙" style="text;html=1;strokeColor=none;fillColor=none;align=center;verticalAlign=middle;whiteSpace=wrap;rounded=0;comic=0;fontSize=16;rotation=0;movable=1;resizable=1;rotatable=1;deletable=1;editable=1;connectable=1;" vertex="1" parent="DeQmT3_htAKg_PisZt2I-196">
          <mxGeometry x="99.10337121119235" y="313.95662077045637" width="44.3146247048848" height="42.09531520172168" as="geometry" />
        </mxCell>
        <mxCell id="DeQmT3_htAKg_PisZt2I-198" value="" style="group" vertex="1" connectable="0" parent="DeQmT3_htAKg_PisZt2I-245">
          <mxGeometry x="148.27685335045092" y="148.97368108868605" width="832.8508872097651" height="832.8551356996314" as="geometry" />
        </mxCell>
        <mxCell id="DeQmT3_htAKg_PisZt2I-153" value="" style="verticalLabelPosition=bottom;verticalAlign=top;html=1;shape=mxgraph.basic.partConcEllipse;startAngle=0.0;endAngle=0.05;arcWidth=0.14;comic=0;fontSize=9;fontColor=#FFFFFF;strokeColor=#000000;fillColor=#FFFFFF;aspect=fixed;rotation=18;movable=1;resizable=1;rotatable=1;deletable=1;editable=1;connectable=1;container=0;" vertex="1" parent="DeQmT3_htAKg_PisZt2I-198">
          <mxGeometry x="120.57055521586182" y="121.56471145333138" width="589.7226602896493" height="589.7226602896493" as="geometry" />
        </mxCell>
        <mxCell id="DeQmT3_htAKg_PisZt2I-142" value="" style="verticalLabelPosition=bottom;verticalAlign=top;html=1;shape=mxgraph.basic.partConcEllipse;startAngle=0.0;endAngle=0.05;arcWidth=0.14;comic=0;fontSize=9;fontColor=#FFFFFF;strokeColor=#000000;fillColor=#FFFFFF;aspect=fixed;movable=1;resizable=1;rotatable=1;deletable=1;editable=1;connectable=1;container=0;" vertex="1" parent="DeQmT3_htAKg_PisZt2I-198">
          <mxGeometry x="121.56409133775233" y="121.95433115098082" width="589.7226602896493" height="589.7226602896493" as="geometry" />
        </mxCell>
        <mxCell id="DeQmT3_htAKg_PisZt2I-145" value="" style="verticalLabelPosition=bottom;verticalAlign=top;html=1;shape=mxgraph.basic.partConcEllipse;startAngle=0.0;endAngle=0.06666667;arcWidth=0.14;comic=0;fontSize=9;fontColor=#FFFFFF;strokeColor=#000000;fillColor=#FFFFFF;aspect=fixed;rotation=72;movable=1;resizable=1;rotatable=1;deletable=1;editable=1;connectable=1;container=0;" vertex="1" parent="DeQmT3_htAKg_PisZt2I-198">
          <mxGeometry x="119.34324588882083" y="121.56471145333138" width="589.7226602896493" height="589.7226602896493" as="geometry" />
        </mxCell>
        <mxCell id="DeQmT3_htAKg_PisZt2I-147" value="" style="verticalLabelPosition=bottom;verticalAlign=top;html=1;shape=mxgraph.basic.partConcEllipse;startAngle=0.0;endAngle=0.06666667;arcWidth=0.14;comic=0;fontSize=9;strokeColor=#36393d;fillColor=#eeeeee;aspect=fixed;rotation=144;movable=1;resizable=1;rotatable=1;deletable=1;editable=1;connectable=1;container=0;" vertex="1" parent="DeQmT3_htAKg_PisZt2I-198">
          <mxGeometry x="119.34324588882083" y="121.95433115098088" width="589.7226602896493" height="589.7226602896493" as="geometry" />
        </mxCell>
        <mxCell id="DeQmT3_htAKg_PisZt2I-149" value="" style="verticalLabelPosition=bottom;verticalAlign=top;html=1;shape=mxgraph.basic.partConcEllipse;startAngle=0.0;endAngle=0.06666667;arcWidth=0.14;comic=0;fontSize=9;fontColor=#FFFFFF;strokeColor=#000000;fillColor=#FFFFFF;aspect=fixed;rotation=216;movable=1;resizable=1;rotatable=1;deletable=1;editable=1;connectable=1;container=0;" vertex="1" parent="DeQmT3_htAKg_PisZt2I-198">
          <mxGeometry x="121.29135593174335" y="121.95433115098088" width="589.7226602896493" height="589.7226602896493" as="geometry" />
        </mxCell>
        <mxCell id="DeQmT3_htAKg_PisZt2I-151" value="" style="verticalLabelPosition=bottom;verticalAlign=top;html=1;shape=mxgraph.basic.partConcEllipse;startAngle=0.0;endAngle=0.06666667;arcWidth=0.14;comic=0;fontSize=9;strokeColor=#36393d;fillColor=#eeeeee;aspect=fixed;rotation=288;movable=1;resizable=1;rotatable=1;deletable=1;editable=1;connectable=1;container=0;" vertex="1" parent="DeQmT3_htAKg_PisZt2I-198">
          <mxGeometry x="121.56409133775233" y="121.56471145333138" width="589.7226602896493" height="589.7226602896493" as="geometry" />
        </mxCell>
        <mxCell id="DeQmT3_htAKg_PisZt2I-154" value="" style="verticalLabelPosition=bottom;verticalAlign=top;html=1;shape=mxgraph.basic.partConcEllipse;startAngle=0.0;endAngle=0.05;arcWidth=0.14;comic=0;fontSize=9;strokeColor=#36393d;fillColor=#eeeeee;aspect=fixed;rotation=36;movable=1;resizable=1;rotatable=1;deletable=1;editable=1;connectable=1;container=0;" vertex="1" parent="DeQmT3_htAKg_PisZt2I-198">
          <mxGeometry x="119.34324588882083" y="121.56471145333138" width="589.7226602896493" height="589.7226602896493" as="geometry" />
        </mxCell>
        <mxCell id="DeQmT3_htAKg_PisZt2I-156" value="" style="verticalLabelPosition=bottom;verticalAlign=top;html=1;shape=mxgraph.basic.partConcEllipse;startAngle=0.0;endAngle=0.06666667;arcWidth=0.14;comic=0;fontSize=9;strokeColor=#36393d;fillColor=#eeeeee;aspect=fixed;rotation=96;movable=1;resizable=1;rotatable=1;deletable=1;editable=1;connectable=1;container=0;" vertex="1" parent="DeQmT3_htAKg_PisZt2I-198">
          <mxGeometry x="119.34324588882083" y="121.95433115098088" width="589.7226602896493" height="589.7226602896493" as="geometry" />
        </mxCell>
        <mxCell id="DeQmT3_htAKg_PisZt2I-157" value="" style="verticalLabelPosition=bottom;verticalAlign=top;html=1;shape=mxgraph.basic.partConcEllipse;startAngle=0.0;endAngle=0.06666667;arcWidth=0.14;comic=0;fontSize=9;fontColor=#FFFFFF;strokeColor=#000000;fillColor=#FFFFFF;aspect=fixed;rotation=120;movable=1;resizable=1;rotatable=1;deletable=1;editable=1;connectable=1;container=0;" vertex="1" parent="DeQmT3_htAKg_PisZt2I-198">
          <mxGeometry x="119.34324588882083" y="121.95433115098088" width="589.7226602896493" height="589.7226602896493" as="geometry" />
        </mxCell>
        <mxCell id="DeQmT3_htAKg_PisZt2I-158" value="" style="verticalLabelPosition=bottom;verticalAlign=top;html=1;shape=mxgraph.basic.partConcEllipse;startAngle=0.0;endAngle=0.06666667;arcWidth=0.14;comic=0;fontSize=9;fontColor=#FFFFFF;strokeColor=#000000;fillColor=#FFFFFF;aspect=fixed;rotation=168;movable=1;resizable=1;rotatable=1;deletable=1;editable=1;connectable=1;container=0;" vertex="1" parent="DeQmT3_htAKg_PisZt2I-198">
          <mxGeometry x="119.34324588882083" y="121.95433115098088" width="589.7226602896493" height="589.7226602896493" as="geometry" />
        </mxCell>
        <mxCell id="DeQmT3_htAKg_PisZt2I-159" value="" style="verticalLabelPosition=bottom;verticalAlign=top;html=1;shape=mxgraph.basic.partConcEllipse;startAngle=0.0;endAngle=0.06666667;arcWidth=0.14;comic=0;fontSize=9;fontColor=#FFFFFF;strokeColor=#000000;fillColor=#E6E6E6;aspect=fixed;rotation=192;movable=1;resizable=1;rotatable=1;deletable=1;editable=1;connectable=1;container=0;" vertex="1" parent="DeQmT3_htAKg_PisZt2I-198">
          <mxGeometry x="121.29135593174335" y="121.95433115098088" width="589.7226602896493" height="589.7226602896493" as="geometry" />
        </mxCell>
        <mxCell id="DeQmT3_htAKg_PisZt2I-160" value="" style="verticalLabelPosition=bottom;verticalAlign=top;html=1;shape=mxgraph.basic.partConcEllipse;startAngle=0.0;endAngle=0.06666667;arcWidth=0.14;comic=0;fontSize=9;strokeColor=#36393d;fillColor=#eeeeee;aspect=fixed;rotation=240;movable=1;resizable=1;rotatable=1;deletable=1;editable=1;connectable=1;container=0;" vertex="1" parent="DeQmT3_htAKg_PisZt2I-198">
          <mxGeometry x="121.56409133775233" y="121.56471145333138" width="589.7226602896493" height="589.7226602896493" as="geometry" />
        </mxCell>
        <mxCell id="DeQmT3_htAKg_PisZt2I-161" value="" style="verticalLabelPosition=bottom;verticalAlign=top;html=1;shape=mxgraph.basic.partConcEllipse;startAngle=0.0;endAngle=0.06666667;arcWidth=0.14;comic=0;fontSize=9;fontColor=#FFFFFF;strokeColor=#000000;fillColor=#FFFFFF;aspect=fixed;rotation=264;movable=1;resizable=1;rotatable=1;deletable=1;editable=1;connectable=1;container=0;" vertex="1" parent="DeQmT3_htAKg_PisZt2I-198">
          <mxGeometry x="121.56409133775233" y="121.56471145333138" width="589.7226602896493" height="589.7226602896493" as="geometry" />
        </mxCell>
        <mxCell id="DeQmT3_htAKg_PisZt2I-162" value="" style="verticalLabelPosition=bottom;verticalAlign=top;html=1;shape=mxgraph.basic.partConcEllipse;startAngle=0.0;endAngle=0.06666667;arcWidth=0.14;comic=0;fontSize=9;fontColor=#FFFFFF;strokeColor=#000000;fillColor=#FFFFFF;aspect=fixed;rotation=312;movable=1;resizable=1;rotatable=1;deletable=1;editable=1;connectable=1;container=0;" vertex="1" parent="DeQmT3_htAKg_PisZt2I-198">
          <mxGeometry x="121.56409133775233" y="121.56471145333138" width="589.7226602896493" height="589.7226602896493" as="geometry" />
        </mxCell>
        <mxCell id="DeQmT3_htAKg_PisZt2I-163" value="" style="verticalLabelPosition=bottom;verticalAlign=top;html=1;shape=mxgraph.basic.partConcEllipse;startAngle=0.0;endAngle=0.06666667;arcWidth=0.14;comic=0;fontSize=9;strokeColor=#36393d;fillColor=#eeeeee;aspect=fixed;rotation=336;movable=1;resizable=1;rotatable=1;deletable=1;editable=1;connectable=1;container=0;" vertex="1" parent="DeQmT3_htAKg_PisZt2I-198">
          <mxGeometry x="121.56409133775233" y="121.56471145333138" width="589.7226602896493" height="589.7226602896493" as="geometry" />
        </mxCell>
        <mxCell id="DeQmT3_htAKg_PisZt2I-155" value="" style="verticalLabelPosition=bottom;verticalAlign=top;html=1;shape=mxgraph.basic.partConcEllipse;startAngle=0.0;endAngle=0.05;arcWidth=0.14;comic=0;fontSize=9;strokeColor=#36393d;fillColor=#eeeeee;aspect=fixed;rotation=54;movable=1;resizable=1;rotatable=1;deletable=1;editable=1;connectable=1;container=0;" vertex="1" parent="DeQmT3_htAKg_PisZt2I-198">
          <mxGeometry x="118.56400187165187" y="120.78547205803251" width="589.7226602896493" height="589.7226602896493" as="geometry" />
        </mxCell>
        <mxCell id="DeQmT3_htAKg_PisZt2I-164" value="寅" style="text;html=1;strokeColor=none;fillColor=none;align=center;verticalAlign=middle;whiteSpace=wrap;rounded=0;comic=0;fontSize=16;rotation=0;movable=1;resizable=1;rotatable=1;deletable=1;editable=1;connectable=1;container=0;" vertex="1" parent="DeQmT3_htAKg_PisZt2I-198">
          <mxGeometry x="198.85080977237837" y="590.0426978017532" width="44.3146247048848" height="42.09531520172169" as="geometry" />
        </mxCell>
        <mxCell id="DeQmT3_htAKg_PisZt2I-165" value="卯" style="text;html=1;strokeColor=none;fillColor=none;align=center;verticalAlign=middle;whiteSpace=wrap;rounded=0;comic=0;fontSize=16;rotation=0;movable=1;resizable=1;rotatable=1;deletable=1;editable=1;connectable=1;container=0;" vertex="1" parent="DeQmT3_htAKg_PisZt2I-198">
          <mxGeometry x="133.14647734816617" y="479.55346780590236" width="44.3146247048848" height="42.09531520172169" as="geometry" />
        </mxCell>
        <mxCell id="DeQmT3_htAKg_PisZt2I-166" value="辰" style="text;html=1;strokeColor=none;fillColor=none;align=center;verticalAlign=middle;whiteSpace=wrap;rounded=0;comic=0;fontSize=16;rotation=0;movable=1;resizable=1;rotatable=1;deletable=1;editable=1;connectable=1;container=0;" vertex="1" parent="DeQmT3_htAKg_PisZt2I-198">
          <mxGeometry x="119.52457057827976" y="366.42231977810485" width="44.3146247048848" height="42.09531520172169" as="geometry" />
        </mxCell>
        <mxCell id="DeQmT3_htAKg_PisZt2I-168" value="午" style="text;html=1;strokeColor=none;fillColor=none;align=center;verticalAlign=middle;whiteSpace=wrap;rounded=0;comic=0;fontSize=16;rotation=0;movable=1;resizable=1;rotatable=1;deletable=1;editable=1;connectable=1;container=0;" vertex="1" parent="DeQmT3_htAKg_PisZt2I-198">
          <mxGeometry x="234.25793835737272" y="172.72921980615146" width="44.3146247048848" height="42.09531520172169" as="geometry" />
        </mxCell>
        <mxCell id="DeQmT3_htAKg_PisZt2I-169" value="未" style="text;html=1;strokeColor=none;fillColor=none;align=center;verticalAlign=middle;whiteSpace=wrap;rounded=0;comic=0;fontSize=16;rotation=0;movable=1;resizable=1;rotatable=1;deletable=1;editable=1;connectable=1;container=0;" vertex="1" parent="DeQmT3_htAKg_PisZt2I-198">
          <mxGeometry x="338.4220962465418" y="128.71884916394148" width="44.3146247048848" height="42.09531520172169" as="geometry" />
        </mxCell>
        <mxCell id="DeQmT3_htAKg_PisZt2I-170" value="辰" style="text;html=1;strokeColor=none;fillColor=none;align=center;verticalAlign=middle;whiteSpace=wrap;rounded=0;comic=0;fontSize=16;rotation=0;movable=1;resizable=1;rotatable=1;deletable=1;editable=1;connectable=1;container=0;" vertex="1" parent="DeQmT3_htAKg_PisZt2I-198">
          <mxGeometry x="434.15247841052883" y="124.93927412028278" width="44.3146247048848" height="42.09531520172169" as="geometry" />
        </mxCell>
        <mxCell id="DeQmT3_htAKg_PisZt2I-172" value="丑" style="text;html=1;strokeColor=none;fillColor=none;align=center;verticalAlign=middle;whiteSpace=wrap;rounded=0;comic=0;fontSize=16;rotation=0;movable=1;resizable=1;rotatable=1;deletable=1;editable=1;connectable=1;container=0;" vertex="1" parent="DeQmT3_htAKg_PisZt2I-198">
          <mxGeometry x="586.7878760243269" y="197.13903652501187" width="44.3146247048848" height="42.09531520172169" as="geometry" />
        </mxCell>
        <mxCell id="DeQmT3_htAKg_PisZt2I-175" value="酉" style="text;html=1;strokeColor=none;fillColor=none;align=center;verticalAlign=middle;whiteSpace=wrap;rounded=0;comic=0;fontSize=16;rotation=0;movable=1;resizable=1;rotatable=1;deletable=1;editable=1;connectable=1;container=0;" vertex="1" parent="DeQmT3_htAKg_PisZt2I-198">
          <mxGeometry x="653.5871372640341" y="474.587114712025" width="44.3146247048848" height="42.09531520172169" as="geometry" />
        </mxCell>
        <mxCell id="DeQmT3_htAKg_PisZt2I-176" value="戌" style="text;html=1;strokeColor=none;fillColor=none;align=center;verticalAlign=middle;whiteSpace=wrap;rounded=0;comic=0;fontSize=16;rotation=0;movable=1;resizable=1;rotatable=1;deletable=1;editable=1;connectable=1;container=0;" vertex="1" parent="DeQmT3_htAKg_PisZt2I-198">
          <mxGeometry x="591.3470551843067" y="583.208266938619" width="44.3146247048848" height="42.09531520172169" as="geometry" />
        </mxCell>
        <mxCell id="DeQmT3_htAKg_PisZt2I-177" value="亥" style="text;html=1;strokeColor=none;fillColor=none;align=center;verticalAlign=middle;whiteSpace=wrap;rounded=0;comic=0;fontSize=16;rotation=0;movable=1;resizable=1;rotatable=1;deletable=1;editable=1;connectable=1;container=0;" vertex="1" parent="DeQmT3_htAKg_PisZt2I-198">
          <mxGeometry x="509.2306305951434" y="646.6934561111244" width="44.3146247048848" height="42.09531520172169" as="geometry" />
        </mxCell>
        <mxCell id="DeQmT3_htAKg_PisZt2I-178" value="子" style="text;html=1;strokeColor=none;fillColor=none;align=center;verticalAlign=middle;whiteSpace=wrap;rounded=0;comic=0;fontSize=16;rotation=0;movable=1;resizable=1;rotatable=1;deletable=1;editable=1;connectable=1;container=0;" vertex="1" parent="DeQmT3_htAKg_PisZt2I-198">
          <mxGeometry x="394.7200549650883" y="669.0775649513442" width="44.3146247048848" height="42.09531520172169" as="geometry" />
        </mxCell>
        <mxCell id="DeQmT3_htAKg_PisZt2I-179" value="丑" style="text;html=1;strokeColor=none;fillColor=none;align=center;verticalAlign=middle;whiteSpace=wrap;rounded=0;comic=0;fontSize=16;rotation=0;movable=1;resizable=1;rotatable=1;deletable=1;editable=1;connectable=1;container=0;" vertex="1" parent="DeQmT3_htAKg_PisZt2I-198">
          <mxGeometry x="294.11091300659405" y="648.9715997321691" width="44.3146247048848" height="42.09531520172169" as="geometry" />
        </mxCell>
        <mxCell id="DeQmT3_htAKg_PisZt2I-167" value="巳" style="text;html=1;strokeColor=none;fillColor=none;align=center;verticalAlign=middle;whiteSpace=wrap;rounded=0;comic=0;fontSize=16;rotation=0;movable=1;resizable=1;rotatable=1;deletable=1;editable=1;connectable=1;container=0;" vertex="1" parent="DeQmT3_htAKg_PisZt2I-198">
          <mxGeometry x="161.91823189801028" y="256.6442696287921" width="33.511321719588175" height="42.100094116906305" as="geometry" />
        </mxCell>
        <mxCell id="DeQmT3_htAKg_PisZt2I-174" value="申" style="text;html=1;strokeColor=none;fillColor=none;align=center;verticalAlign=middle;whiteSpace=wrap;rounded=0;comic=0;fontSize=16;rotation=0;movable=1;resizable=1;rotatable=1;deletable=1;editable=1;connectable=1;container=0;" vertex="1" parent="DeQmT3_htAKg_PisZt2I-198">
          <mxGeometry x="663.609595473965" y="365.05001079806664" width="44.3146247048848" height="42.09531520172169" as="geometry" />
        </mxCell>
        <mxCell id="DeQmT3_htAKg_PisZt2I-173" value="未" style="text;html=1;strokeColor=none;fillColor=none;align=center;verticalAlign=middle;whiteSpace=wrap;rounded=0;comic=0;fontSize=16;rotation=0;movable=1;resizable=1;rotatable=1;deletable=1;editable=1;connectable=1;container=0;" vertex="1" parent="DeQmT3_htAKg_PisZt2I-198">
          <mxGeometry x="634.5268516391877" y="268.13928239796155" width="44.3146247048848" height="42.09531520172169" as="geometry" />
        </mxCell>
        <mxCell id="DeQmT3_htAKg_PisZt2I-171" value="戌" style="text;html=1;strokeColor=none;fillColor=none;align=center;verticalAlign=middle;whiteSpace=wrap;rounded=0;comic=0;fontSize=16;rotation=0;movable=1;resizable=1;rotatable=1;deletable=1;editable=1;connectable=1;container=0;" vertex="1" parent="DeQmT3_htAKg_PisZt2I-198">
          <mxGeometry x="514.924291295386" y="149.34664404868147" width="44.3146247048848" height="42.09531520172169" as="geometry" />
        </mxCell>
        <mxCell id="DeQmT3_htAKg_PisZt2I-208" value="" style="group;aspect=fixed;" vertex="1" connectable="0" parent="DeQmT3_htAKg_PisZt2I-245">
          <mxGeometry x="82.2110253512628" y="82.90751607838943" width="968.206027347347" height="968.206027347347" as="geometry" />
        </mxCell>
        <mxCell id="DeQmT3_htAKg_PisZt2I-203" value="" style="verticalLabelPosition=bottom;verticalAlign=top;html=1;shape=mxgraph.basic.partConcEllipse;startAngle=0.0;endAngle=0.2;arcWidth=0.14;comic=0;fontSize=9;strokeColor=#36393d;fillColor=#cce5ff;aspect=fixed;rotation=288;movable=1;resizable=1;rotatable=1;deletable=1;editable=1;connectable=1;" vertex="1" parent="DeQmT3_htAKg_PisZt2I-208">
          <mxGeometry x="137.23596551678048" y="136.92604781309794" width="690.1383346286507" height="690.1383346286507" as="geometry" />
        </mxCell>
        <mxCell id="DeQmT3_htAKg_PisZt2I-204" value="" style="verticalLabelPosition=bottom;verticalAlign=top;html=1;shape=mxgraph.basic.partConcEllipse;startAngle=0.0;endAngle=0.2;arcWidth=0.14;comic=0;fontSize=9;strokeColor=#36393d;fillColor=#cce5ff;aspect=fixed;movable=1;resizable=1;rotatable=1;deletable=1;editable=1;connectable=1;" vertex="1" parent="DeQmT3_htAKg_PisZt2I-208">
          <mxGeometry x="136.04998799814996" y="137.18852046801476" width="690.1383346286507" height="690.1383346286507" as="geometry" />
        </mxCell>
        <mxCell id="DeQmT3_htAKg_PisZt2I-205" value="" style="verticalLabelPosition=bottom;verticalAlign=top;html=1;shape=mxgraph.basic.partConcEllipse;startAngle=0.0;endAngle=0.2;arcWidth=0.14;comic=0;fontSize=9;strokeColor=#36393d;fillColor=#cce5ff;aspect=fixed;rotation=72;movable=1;resizable=1;rotatable=1;deletable=1;editable=1;connectable=1;" vertex="1" parent="DeQmT3_htAKg_PisZt2I-208">
          <mxGeometry x="136.04998799814996" y="136.9260478130979" width="690.1383346286507" height="690.1383346286507" as="geometry" />
        </mxCell>
        <mxCell id="DeQmT3_htAKg_PisZt2I-206" value="" style="verticalLabelPosition=bottom;verticalAlign=top;html=1;shape=mxgraph.basic.partConcEllipse;startAngle=0.0;endAngle=0.2;arcWidth=0.14;comic=0;fontSize=9;strokeColor=#36393d;fillColor=#cce5ff;aspect=fixed;rotation=144;movable=1;resizable=1;rotatable=1;deletable=1;editable=1;connectable=1;" vertex="1" parent="DeQmT3_htAKg_PisZt2I-208">
          <mxGeometry x="136.92488944632004" y="136.92604781309794" width="690.1383346286507" height="690.1383346286507" as="geometry" />
        </mxCell>
        <mxCell id="DeQmT3_htAKg_PisZt2I-207" value="" style="verticalLabelPosition=bottom;verticalAlign=top;html=1;shape=mxgraph.basic.partConcEllipse;startAngle=0.0;endAngle=0.2;arcWidth=0.14;comic=0;fontSize=9;strokeColor=#36393d;fillColor=#cce5ff;aspect=fixed;rotation=216;movable=1;resizable=1;rotatable=1;deletable=1;editable=1;connectable=1;" vertex="1" parent="DeQmT3_htAKg_PisZt2I-208">
          <mxGeometry x="136.92488944632004" y="137.3051749813111" width="690.1383346286507" height="690.1383346286507" as="geometry" />
        </mxCell>
        <mxCell id="DeQmT3_htAKg_PisZt2I-209" value="中" style="text;html=1;strokeColor=none;fillColor=none;align=center;verticalAlign=middle;whiteSpace=wrap;rounded=0;comic=0;fontSize=16;rotation=0;editable=1;movable=1;resizable=1;rotatable=1;deletable=1;connectable=1;" vertex="1" parent="DeQmT3_htAKg_PisZt2I-208">
          <mxGeometry x="647.7600774694262" y="204.2320099539962" width="44.314621380130106" height="42.09509731044342" as="geometry" />
        </mxCell>
        <mxCell id="DeQmT3_htAKg_PisZt2I-217" value="西" style="text;html=1;strokeColor=none;fillColor=none;align=center;verticalAlign=middle;whiteSpace=wrap;rounded=0;comic=0;fontSize=16;rotation=0;editable=1;movable=1;resizable=1;rotatable=1;deletable=1;connectable=1;" vertex="1" parent="DeQmT3_htAKg_PisZt2I-208">
          <mxGeometry x="763.9448007511079" y="560.7596412007251" width="44.314621380130106" height="42.09509731044342" as="geometry" />
        </mxCell>
        <mxCell id="DeQmT3_htAKg_PisZt2I-218" value="北" style="text;html=1;strokeColor=none;fillColor=none;align=center;verticalAlign=middle;whiteSpace=wrap;rounded=0;comic=0;fontSize=16;rotation=0;editable=1;movable=1;resizable=1;rotatable=1;deletable=1;connectable=1;" vertex="1" parent="DeQmT3_htAKg_PisZt2I-208">
          <mxGeometry x="461.94425483275234" y="784.9733758160801" width="44.314621380130106" height="42.09509731044342" as="geometry" />
        </mxCell>
        <mxCell id="DeQmT3_htAKg_PisZt2I-219" value="东" style="text;html=1;strokeColor=none;fillColor=none;align=center;verticalAlign=middle;whiteSpace=wrap;rounded=0;comic=0;fontSize=16;rotation=0;editable=1;movable=1;resizable=1;rotatable=1;deletable=1;connectable=1;" vertex="1" parent="DeQmT3_htAKg_PisZt2I-208">
          <mxGeometry x="153.40547056501597" y="560.7596412007251" width="44.314621380130106" height="42.09509731044342" as="geometry" />
        </mxCell>
        <mxCell id="DeQmT3_htAKg_PisZt2I-220" value="南" style="text;html=1;strokeColor=none;fillColor=none;align=center;verticalAlign=middle;whiteSpace=wrap;rounded=0;comic=0;fontSize=16;rotation=0;editable=1;movable=1;resizable=1;rotatable=1;deletable=1;connectable=1;" vertex="1" parent="DeQmT3_htAKg_PisZt2I-208">
          <mxGeometry x="271.8683256757502" y="203.09294403946993" width="44.314621380130106" height="42.09509731044342" as="geometry" />
        </mxCell>
        <mxCell id="DeQmT3_htAKg_PisZt2I-235" value="&lt;font color=&quot;#FFFFFF&quot;&gt;冬&lt;/font&gt;" style="text;html=1;strokeColor=none;fillColor=none;align=center;verticalAlign=middle;whiteSpace=wrap;rounded=0;comic=0;fontSize=16;rotation=0;editable=1;movable=1;resizable=1;rotatable=1;deletable=1;connectable=1;" vertex="1" parent="DeQmT3_htAKg_PisZt2I-208">
          <mxGeometry x="461.9442411773672" y="836.421761966684" width="44.314621380130106" height="42.09509731044342" as="geometry" />
        </mxCell>
        <mxCell id="DeQmT3_htAKg_PisZt2I-238" value="" style="shape=image;imageAspect=0;aspect=fixed;verticalLabelPosition=bottom;verticalAlign=top;comic=0;fontSize=16;fontColor=#FFFFFF;strokeColor=#000000;fillColor=#FFFF00;html=0;image=https://th.bing.com/th/id/OIP.JrURyz1lEh1aQD8xkrmQNAHaHa?w=179&amp;h=180&amp;c=7&amp;r=0&amp;o=5&amp;pid=1.7;" vertex="1" parent="DeQmT3_htAKg_PisZt2I-208">
          <mxGeometry x="424.80324216343485" y="427.46865640342617" width="112.64222828750488" height="113.26871454049433" as="geometry" />
        </mxCell>
        <mxCell id="DeQmT3_htAKg_PisZt2I-221" value="春" style="text;html=1;strokeColor=none;fillColor=none;align=center;verticalAlign=middle;whiteSpace=wrap;rounded=0;comic=0;fontSize=16;rotation=0;editable=1;movable=1;resizable=1;rotatable=1;deletable=1;connectable=1;" vertex="1" parent="DeQmT3_htAKg_PisZt2I-245">
          <mxGeometry x="181.97788948635716" y="653.9217061596945" width="44.3146247048848" height="42.09531520172168" as="geometry" />
        </mxCell>
        <mxCell id="DeQmT3_htAKg_PisZt2I-222" value="夏" style="text;html=1;strokeColor=none;fillColor=none;align=center;verticalAlign=middle;whiteSpace=wrap;rounded=0;comic=0;fontSize=16;rotation=0;editable=1;movable=1;resizable=1;rotatable=1;deletable=1;connectable=1;" vertex="1" parent="DeQmT3_htAKg_PisZt2I-245">
          <mxGeometry x="314.212061424732" y="247.27306980321325" width="44.3146247048848" height="42.09531520172168" as="geometry" />
        </mxCell>
        <mxCell id="DeQmT3_htAKg_PisZt2I-234" value="秋" style="text;html=1;strokeColor=none;fillColor=none;align=center;verticalAlign=middle;whiteSpace=wrap;rounded=0;comic=0;fontSize=16;rotation=0;editable=1;movable=1;resizable=1;rotatable=1;deletable=1;connectable=1;" vertex="1" parent="DeQmT3_htAKg_PisZt2I-245">
          <mxGeometry x="898.9060298775465" y="661.8268645247197" width="44.3146247048848" height="42.09531520172168" as="geometry" />
        </mxCell>
        <mxCell id="DeQmT3_htAKg_PisZt2I-236" value="旺于四季" style="text;html=1;strokeColor=none;fillColor=none;align=center;verticalAlign=middle;whiteSpace=wrap;rounded=0;comic=0;fontSize=16;rotation=30;editable=1;movable=1;resizable=1;rotatable=1;deletable=1;connectable=1;" vertex="1" parent="DeQmT3_htAKg_PisZt2I-245">
          <mxGeometry x="744.6234669831223" y="243.85836290519822" width="77.82098911904365" height="42.1000941169063" as="geometry" />
        </mxCell>
      </root>
    </mxGraphModel>
  </diagram>
</mxfile>
